<svg width="500" height="500" fill="none" xmlns="http://www.w3.org/2000/svg"><path d="M214.492 23.67C954.828 56.642 24.282 870.68.363 236.277c-2.278-61.394 4.556-137.568 67.2-155.76 0 121.652-25.057 305.834 149.206 305.834 128.705 0 189.071-156.896 100.231-250.124-28.475-26.149-62.644-43.203-102.508-43.203-11.39 0-22.78 1.137-33.031 4.548v70.489c9.112-4.548 20.502-7.958 31.892-7.958 101.369 0 97.952 148.937 3.416 148.937-71.755 0-77.45-55.71-77.45-110.282V86.201c1.139-57.983 2.278-65.941 75.173-62.53z" fill="#3C6"/></svg>