<svg width="24" height="20" viewBox="0 0 24 20" fill="none" xmlns="http://www.w3.org/2000/svg"><path d="M23.643 2.937C22.808 3.307 21.911 3.557 20.968 3.67C21.93 3.094 22.668 2.18 23.016 1.092C22.116 1.626 21.119 2.014 20.058 2.222C19.208 1.318 17.998 0.752 16.658 0.752C14.086 0.752 12 2.838 12 5.412C12 5.776 12.042 6.13 12.12 6.472C8.247 6.277 4.816 4.422 2.518 1.604C2.118 2.294 1.888 3.094 1.888 3.946C1.888 5.562 2.711 6.989 3.96 7.824C3.196 7.799 2.478 7.59 1.85 7.241V7.301C1.85 9.558 3.455 11.441 5.587 11.869C5.195 11.975 4.784 12.031 4.36 12.031C4.06 12.031 3.767 12.003 3.483 11.949C4.076 13.799 5.796 15.147 7.835 15.183C6.24 16.433 4.231 17.178 2.049 17.178C1.673 17.178 1.302 17.156 0.937 17.113C2.999 18.436 5.447 19.206 8.077 19.206C16.647 19.206 21.332 12.108 21.332 5.952C21.332 5.752 21.327 5.55 21.318 5.35C22.228 4.692 23.018 3.873 23.641 2.94L23.643 2.937Z" fill="#1DA1F2"/></svg>
